<svg xmlns="http://www.w3.org/2000/svg" xmlns:xlink="http://www.w3.org/1999/xlink" width="500" zoomAndPan="magnify" viewBox="0 0 375 374.999991" height="500" preserveAspectRatio="xMidYMid meet" version="1.0"><defs><clipPath id="ef8aac055b"><path d="M 112 137 L 375 137 L 375 344.589844 L 112 344.589844 Z M 112 137 " clip-rule="nonzero"/></clipPath><clipPath id="68120145d9"><path d="M 227 30.339844 L 352 30.339844 L 352 127 L 227 127 Z M 227 30.339844 " clip-rule="nonzero"/></clipPath></defs><rect x="-37.5" width="450" fill="#ffffff" y="-37.499999" height="449.999989" fill-opacity="1"/><rect x="-37.5" width="450" fill="#ffffff" y="-37.499999" height="449.999989" fill-opacity="1"/><g clip-path="url(#ef8aac055b)"><path fill="#000000" d="M 374.796875 215.039062 C 374.910156 229.605469 371.167969 242.007812 364.511719 253.621094 C 359.757812 261.910156 353.867188 269.300781 346.988281 275.90625 C 342.425781 280.289062 337.628906 284.433594 332.542969 288.175781 C 327.519531 291.875 324.03125 296.644531 321.441406 302.164062 C 318.527344 308.371094 315.511719 314.53125 313.085938 320.957031 C 310.449219 327.9375 308.402344 335.089844 306.976562 342.421875 C 306.894531 342.828125 306.839844 343.257812 306.671875 343.632812 C 306.265625 344.535156 305.125 344.667969 304.53125 343.875 C 304.105469 343.304688 303.761719 342.671875 303.386719 342.0625 C 299.28125 335.378906 294.558594 329.179688 288.964844 323.664062 C 286.324219 321.0625 283.449219 318.734375 280.558594 316.433594 C 278.015625 314.410156 275.035156 313.140625 272.058594 311.90625 C 271.15625 311.53125 270.199219 311.535156 269.238281 311.601562 C 264.125 311.945312 259.015625 312.304688 253.898438 312.617188 C 248.488281 312.949219 243.074219 313.28125 237.65625 313.519531 C 235.039062 313.632812 232.414062 313.640625 229.789062 313.429688 C 226.703125 313.183594 223.597656 313.300781 220.5 313.023438 C 217.652344 312.769531 214.804688 312.539062 211.957031 312.277344 C 203.746094 311.515625 195.660156 310.09375 187.742188 307.792969 C 176.269531 304.460938 165.148438 300.183594 154.476562 294.792969 C 146.253906 290.640625 138.445312 285.8125 131.433594 279.8125 C 123.320312 272.867188 116.949219 264.652344 113.519531 254.386719 C 113.3125 253.765625 113.136719 253.132812 112.984375 252.496094 C 112.808594 251.75 113.148438 251.378906 113.910156 251.332031 C 115.335938 251.246094 116.761719 251.105469 118.1875 251.050781 C 124.742188 250.808594 131.265625 250.199219 137.796875 249.667969 C 146.171875 248.984375 154.476562 247.742188 162.792969 246.621094 C 167.859375 245.9375 172.949219 245.230469 177.8125 243.507812 C 179.382812 242.953125 180.96875 242.421875 182.511719 241.796875 C 183.414062 241.433594 184.109375 241.425781 184.988281 242.011719 C 186.269531 242.867188 187.707031 243.492188 189.105469 244.160156 C 193.792969 246.390625 198.257812 249.046875 202.855469 251.445312 C 207.664062 253.953125 212.496094 256.429688 217.375 258.804688 C 223.429688 261.757812 229.269531 265.15625 235.449219 267.84375 C 241.789062 270.59375 248.160156 273.292969 254.628906 275.710938 C 258.019531 276.976562 261.546875 277.910156 264.941406 279.210938 C 266.003906 279.617188 266.933594 279.375 267.730469 278.585938 C 268.996094 277.324219 270.296875 276.089844 271.515625 274.78125 C 275.089844 270.9375 278.683594 267.113281 282.171875 263.191406 C 287.757812 256.90625 293.363281 250.632812 297.9375 243.535156 C 299.976562 240.378906 301.882812 237.144531 303.757812 233.886719 C 303.816406 233.785156 303.871094 233.675781 303.914062 233.566406 C 307.46875 224.523438 310.542969 215.355469 309.519531 205.4375 C 308.96875 200.0625 307.59375 194.886719 304.183594 190.476562 C 303.074219 189.039062 301.757812 187.84375 300.269531 186.839844 C 295.515625 183.632812 290.386719 181.316406 284.65625 180.554688 C 280.847656 180.046875 277.160156 180.710938 273.632812 182.171875 C 270.527344 183.453125 267.636719 185.109375 265.308594 187.609375 C 264.738281 188.21875 264.136719 188.796875 263.515625 189.359375 C 259.75 192.78125 257.078125 197.015625 254.6875 201.425781 C 253.039062 204.464844 251.613281 207.621094 250.121094 210.738281 C 249.410156 212.21875 249.386719 212.277344 248.191406 211.199219 C 245.140625 208.4375 242.09375 205.671875 239.105469 202.84375 C 237.457031 201.285156 235.792969 199.753906 233.917969 198.46875 C 233.425781 198.132812 232.949219 197.765625 232.523438 197.351562 C 231.683594 196.53125 231.644531 195.976562 232.214844 194.976562 C 234.632812 190.71875 236.605469 186.253906 238.300781 181.671875 C 241.953125 171.816406 244.742188 161.714844 246.734375 151.398438 C 247.246094 148.769531 247.738281 146.113281 247.914062 143.449219 C 248.097656 140.621094 249.363281 140.238281 251.238281 140.078125 C 257.769531 139.527344 264.222656 138.328125 270.757812 137.800781 C 275.453125 137.421875 280.144531 137.128906 284.859375 137.066406 C 289.746094 137 294.632812 137.042969 299.492188 137.570312 C 310.277344 138.742188 320.722656 141.230469 330.664062 145.699219 C 339.425781 149.640625 347.171875 154.976562 353.667969 162.082031 C 359.390625 168.34375 363.921875 175.398438 367.488281 183.070312 C 370.492188 189.53125 372.660156 196.265625 373.792969 203.320312 C 374.476562 207.566406 374.867188 211.835938 374.796875 215.039062 Z M 250.480469 227.792969 C 245.539062 223.34375 240.609375 218.882812 236.066406 214.015625 C 233.777344 211.5625 231.347656 209.253906 228.765625 207.105469 C 227.660156 206.183594 227.195312 206.179688 226.191406 207.261719 C 225.5 208.011719 224.859375 208.816406 224.214844 209.605469 C 221.417969 213.042969 218.871094 216.703125 215.574219 219.691406 C 211.746094 223.164062 207.863281 226.574219 203.90625 229.898438 C 201.734375 231.726562 199.566406 233.558594 197.414062 235.40625 C 196.710938 236.011719 196.699219 236.496094 197.457031 237.050781 C 198.09375 237.519531 198.804688 237.898438 199.523438 238.234375 C 203.6875 240.207031 207.667969 242.519531 211.558594 244.972656 C 222.082031 251.605469 233.359375 256.675781 244.964844 261.046875 C 250.222656 263.027344 255.527344 264.890625 260.707031 267.066406 C 261.5625 267.425781 262.082031 267.4375 262.808594 266.808594 C 265.128906 264.800781 267.3125 262.640625 269.648438 260.65625 C 275.199219 255.9375 279.808594 250.425781 283.640625 244.257812 C 288.601562 236.261719 292.332031 227.671875 295.886719 218.988281 C 297.269531 215.601562 297.777344 212.097656 297.558594 208.484375 C 297.34375 204.953125 296.28125 201.660156 294.128906 198.832031 C 291.765625 195.734375 288.492188 194.191406 284.660156 193.683594 C 279.046875 192.941406 273.890625 194.03125 269.441406 197.613281 C 266.125 200.28125 263.65625 203.683594 261.753906 207.488281 C 261.222656 208.554688 260.726562 209.640625 260.050781 210.628906 C 258.734375 212.5625 257.671875 214.632812 256.691406 216.75 C 255.207031 219.941406 253.738281 223.140625 252.238281 226.328125 C 251.933594 226.976562 251.78125 227.71875 251.300781 228.203125 C 250.855469 228.226562 250.683594 227.976562 250.480469 227.792969 Z M 250.480469 227.792969 " fill-opacity="1" fill-rule="nonzero"/></g><g clip-path="url(#68120145d9)"><path fill="#000000" d="M 227.9375 34.425781 C 227.921875 32.542969 227.949219 32.539062 229.46875 32.210938 C 232.320312 31.597656 235.257812 31.636719 238.109375 31.121094 C 240.410156 30.703125 242.75 31.09375 245.027344 30.515625 C 245.644531 30.359375 246.339844 30.429688 246.988281 30.5 C 248.753906 30.695312 249.4375 31.414062 249.796875 33.195312 C 250.058594 34.492188 250.292969 35.761719 249.839844 37.066406 C 249.726562 37.386719 249.789062 37.773438 249.789062 38.132812 C 249.78125 41.167969 249.371094 44.171875 249.148438 47.1875 C 248.992188 49.257812 248.773438 51.328125 248.660156 53.40625 C 248.113281 63.476562 248.578125 73.554688 248.253906 83.617188 C 248.125 87.546875 248.085938 91.472656 247.976562 95.398438 C 247.941406 96.613281 247.925781 96.503906 246.617188 96.445312 C 244.773438 96.363281 242.96875 95.847656 241.117188 95.988281 C 240.089844 96.066406 239.667969 95.601562 239.382812 94.640625 C 237.4375 88.085938 236.164062 81.375 234.675781 74.714844 C 233.757812 70.601562 232.859375 66.488281 232.089844 62.347656 C 231.535156 59.378906 231.078125 56.394531 230.757812 53.382812 C 230.371094 49.789062 229.734375 46.226562 229.195312 42.652344 C 228.765625 39.78125 228.316406 36.910156 227.9375 34.425781 Z M 316.207031 47.574219 C 311.382812 44.203125 306.242188 41.304688 301.519531 37.773438 C 300.632812 37.113281 300.375 37.191406 299.84375 38.113281 C 298.769531 39.964844 297.71875 41.832031 296.679688 43.703125 C 295.378906 46.042969 294.089844 48.386719 292.820312 50.746094 C 291.636719 52.949219 290.289062 55.089844 289.363281 57.394531 C 287.148438 62.910156 285.074219 68.480469 283.0625 74.074219 C 280.464844 81.289062 277.9375 88.53125 275.007812 95.621094 C 274.347656 97.210938 274.621094 98.152344 276.039062 99.070312 C 276.6875 99.492188 277.363281 99.847656 277.980469 100.332031 C 279.199219 101.28125 279.441406 101.222656 280.382812 99.976562 C 283.316406 96.089844 286.214844 92.175781 289.171875 88.308594 C 294.191406 81.746094 298.929688 74.984375 303.617188 68.183594 C 305.710938 65.152344 307.863281 62.160156 310.003906 59.164062 C 312.214844 56.070312 314.457031 52.996094 316.652344 49.890625 C 316.914062 49.523438 317.324219 49.195312 317.332031 48.671875 C 317.132812 48.117188 316.648438 47.882812 316.207031 47.574219 Z M 350.609375 102.21875 C 349.710938 100.746094 348.792969 99.285156 347.898438 97.8125 C 346.015625 94.707031 343.742188 91.875 341.621094 88.9375 C 340.644531 87.585938 339.695312 87.527344 338.320312 88.480469 C 334.898438 90.851562 331.785156 93.613281 328.511719 96.175781 C 325.613281 98.445312 322.757812 100.765625 319.875 103.054688 C 317.035156 105.304688 314.167969 107.515625 311.347656 109.789062 C 307.558594 112.847656 303.796875 115.9375 300.035156 119.03125 C 298.933594 119.933594 297.871094 120.890625 296.800781 121.832031 C 296.269531 122.304688 296.359375 122.707031 296.921875 123.128906 C 297.914062 123.882812 298.96875 124.59375 299.8125 125.492188 C 300.894531 126.644531 301.890625 126.453125 303.167969 125.863281 C 307.109375 124.046875 311.085938 122.304688 315.074219 120.59375 C 319.5 118.699219 323.964844 116.890625 328.394531 115.003906 C 332.609375 113.210938 336.792969 111.351562 341.003906 109.554688 C 344.015625 108.269531 347.023438 106.984375 349.949219 105.507812 C 350.625 105.167969 351.207031 104.796875 351.082031 103.875 C 351.175781 103.277344 350.921875 102.734375 350.609375 102.21875 Z M 350.609375 102.21875 " fill-opacity="1" fill-rule="nonzero"/></g><path fill="#000000" d="M 106.546875 242.777344 C 103.621094 242.777344 100.699219 242.800781 97.777344 242.769531 C 93.898438 242.734375 90.035156 242.957031 86.222656 243.664062 C 85.429688 243.8125 84.714844 243.511719 83.925781 243.636719 C 80.953125 244.09375 78.816406 245.832031 76.957031 247.992188 C 73 252.574219 69.878906 257.71875 67.082031 263.066406 C 65.34375 266.394531 63.628906 269.734375 62.125 273.183594 C 61.335938 274.984375 60.398438 276.71875 59.371094 278.398438 C 58.925781 279.121094 58.402344 279.769531 57.769531 280.3125 C 56.78125 281.160156 55.777344 280.894531 55.433594 279.664062 C 55.214844 278.867188 55.125 278.023438 55.070312 277.195312 C 55 276.1875 55.019531 275.167969 55.023438 274.15625 C 55.042969 267.355469 55.03125 260.558594 54.597656 253.773438 C 54.167969 247.0625 53.730469 240.351562 52.519531 233.71875 C 52.476562 233.484375 52.445312 233.25 52.414062 233.011719 C 52.230469 231.5625 51.527344 230.632812 50.167969 229.875 C 45.316406 227.175781 40.941406 223.75 36.492188 220.445312 C 32.046875 217.136719 27.640625 213.769531 23.464844 210.125 C 21.078125 208.042969 19.164062 205.507812 17.109375 203.113281 C 12.757812 198.050781 10.164062 192.058594 7.722656 185.945312 C 5.324219 179.941406 3.636719 173.761719 2.285156 167.460938 C 0.871094 160.839844 0.0234375 154.15625 0.65625 147.40625 C 1.675781 136.507812 3.828125 125.875 8.492188 115.839844 C 12.386719 107.457031 17.132812 99.609375 23.207031 92.675781 C 30.820312 83.984375 39.277344 76.222656 49.59375 70.714844 C 53.21875 68.777344 56.726562 66.621094 60.34375 64.660156 C 66.78125 61.175781 73.640625 58.820312 80.691406 56.949219 C 86.636719 55.367188 92.679688 54.476562 98.8125 54.011719 C 105.667969 53.496094 112.53125 53.523438 119.371094 53.839844 C 125.671875 54.125 131.980469 54.472656 138.277344 54.886719 C 148.839844 55.585938 159.1875 57.40625 169.019531 61.585938 C 174.679688 63.996094 180.070312 66.941406 185.601562 69.609375 C 191.683594 72.546875 197.402344 76.089844 202.789062 80.171875 C 211.449219 86.726562 218.234375 94.882812 223.175781 104.503906 C 227.847656 113.589844 231.535156 123.082031 233.769531 133.089844 C 234.328125 135.585938 234.5625 138.132812 234.804688 140.683594 C 235.152344 144.328125 234.945312 147.953125 234.6875 151.566406 C 234.101562 159.808594 232.488281 167.828125 229.195312 175.46875 C 225.042969 185.117188 219.546875 193.941406 213.148438 202.238281 C 211.332031 204.597656 209.53125 206.976562 207.824219 209.417969 C 206.613281 211.148438 205.167969 212.613281 203.554688 213.945312 C 191.425781 223.957031 178.140625 231.792969 162.898438 236.152344 C 156.246094 238.054688 149.546875 239.683594 142.738281 240.839844 C 140.164062 241.277344 137.53125 241.367188 134.933594 241.699219 C 129.90625 242.34375 124.835938 242.398438 119.789062 242.644531 C 115.382812 242.863281 110.960938 242.691406 106.546875 242.691406 C 106.546875 242.71875 106.546875 242.746094 106.546875 242.777344 Z M 53.898438 145.902344 C 53.945312 145.902344 53.996094 145.902344 54.042969 145.902344 C 54.042969 149.300781 53.921875 152.703125 54.074219 156.097656 C 54.269531 160.433594 54.710938 164.761719 54.992188 169.097656 C 55.183594 172.007812 55.5625 174.898438 55.929688 177.789062 C 56.453125 181.917969 56.972656 186.050781 57.550781 190.171875 C 57.941406 192.9375 58.351562 195.703125 59.0625 198.414062 C 59.652344 200.652344 61.203125 201.871094 63.285156 202.335938 C 65.25 202.773438 67.28125 203.015625 69.292969 203.121094 C 75.683594 203.441406 82.019531 202.863281 88.320312 201.785156 C 89.925781 201.511719 91.214844 200.933594 92.097656 199.925781 C 92.414062 199.566406 92.558594 198.75 93.320312 197.210938 C 93.46875 196.910156 93.597656 196.664062 93.683594 196.5 C 97.726562 197.320312 101.148438 197.828125 103.699219 198.152344 C 108.464844 198.753906 112.191406 198.964844 115.789062 199.164062 C 120.019531 199.394531 123.277344 199.457031 124.535156 199.480469 C 137.457031 199.6875 147.25 199.773438 156.898438 196.273438 C 159.050781 195.492188 161.402344 194.464844 163.820312 192.558594 C 166.628906 190.351562 168.925781 187.753906 170.367188 184.4375 C 171.65625 181.46875 172.414062 178.359375 173.007812 175.1875 C 174.152344 169.09375 174.964844 162.964844 174.941406 156.753906 C 174.921875 152.105469 175.035156 147.464844 174.65625 142.8125 C 174.316406 138.617188 173.523438 134.554688 172.019531 130.648438 C 170.65625 127.109375 168.347656 124.347656 165.0625 122.289062 C 160.78125 119.605469 156.082031 119.121094 151.304688 119.554688 C 148.183594 119.835938 145.054688 120.34375 141.929688 120.726562 C 139.210938 121.0625 136.449219 121.050781 133.710938 120.84375 C 131.730469 120.699219 130.351562 119.722656 129.808594 117.738281 C 129.683594 117.28125 129.535156 116.828125 129.4375 116.363281 C 128.566406 112.230469 127.917969 108.058594 127.324219 103.875 C 126.824219 100.316406 125.9375 96.871094 124.261719 93.664062 C 122.148438 89.621094 116.671875 85.257812 110.273438 86.496094 C 105.925781 87.339844 102.324219 89.359375 99.871094 93.121094 C 97.671875 96.492188 96.273438 100.238281 95.121094 104.070312 C 93.761719 108.570312 92.910156 113.207031 91.546875 117.710938 C 90.425781 121.417969 89.4375 125.160156 87.667969 128.636719 C 87.179688 129.597656 86.59375 130.488281 85.921875 131.328125 C 85.492188 131.867188 85.070312 132.050781 84.402344 131.636719 C 83.308594 130.957031 82.0625 130.8125 80.789062 130.832031 C 77.097656 130.898438 73.410156 130.808594 69.714844 131.148438 C 66.636719 131.429688 63.554688 131.75 60.476562 132.027344 C 59.1875 132.140625 57.859375 132.234375 56.609375 132.667969 C 54.792969 133.300781 53.902344 134.511719 53.898438 136.417969 C 53.894531 139.578125 53.898438 142.738281 53.898438 145.902344 Z M 145.671875 188.832031 C 146.972656 188.808594 148.839844 188.558594 151.339844 188.140625 C 154.230469 187.65625 156.867188 186.601562 158.703125 184.160156 C 159.96875 182.472656 160.796875 180.574219 161.371094 178.542969 C 162.121094 175.875 162.195312 173.121094 162.34375 170.398438 C 162.601562 165.699219 162.851562 161 163.050781 156.300781 C 163.265625 151.1875 163.445312 146.058594 163.105469 140.941406 C 162.929688 138.324219 162.535156 135.730469 161.203125 133.382812 C 160.652344 132.414062 159.964844 131.550781 158.847656 131.328125 C 157.511719 131.0625 156.15625 130.847656 154.769531 130.929688 C 148.886719 131.285156 143.0625 132.265625 137.152344 132.414062 C 134.085938 132.492188 131.089844 132.269531 128.144531 131.53125 C 124.078125 130.515625 121.066406 128.191406 119.570312 124.15625 C 118.546875 121.402344 117.988281 118.539062 117.695312 115.628906 C 117.25 111.171875 117.320312 110.109375 116.886719 105.660156 C 116.191406 98.496094 115.546875 97.269531 114.496094 96.75 C 112.960938 95.988281 110.910156 96.902344 109.824219 97.691406 C 107.90625 99.085938 107.492188 101.320312 107.058594 102.636719 C 105.726562 106.660156 104.90625 110.808594 104.066406 114.953125 C 103.070312 119.859375 102.058594 124.757812 100.1875 129.425781 C 97.972656 134.953125 94.789062 139.660156 89.179688 142.265625 C 88.347656 142.652344 88.246094 143.230469 88.371094 144.007812 C 88.765625 146.535156 89.070312 149.078125 89.503906 151.59375 C 90.65625 158.292969 91.074219 165.066406 91.820312 171.804688 C 92.273438 175.886719 92.816406 179.960938 93.046875 184.066406 C 93.152344 185.894531 93.375 186.011719 95.132812 186.347656 C 95.773438 186.472656 96.414062 186.609375 97.058594 186.714844 C 103.234375 187.6875 109.460938 188.273438 115.683594 188.789062 C 120.90625 189.214844 126.15625 189.269531 131.574219 189.5 C 137.816406 189.046875 142.472656 188.890625 145.671875 188.832031 Z M 64.019531 145.042969 C 64.019531 145.878906 63.945312 146.722656 64.035156 147.546875 C 64.558594 152.34375 64.660156 157.171875 64.992188 161.980469 C 65.199219 164.953125 65.535156 167.910156 65.878906 170.863281 C 66.460938 175.824219 67.222656 180.765625 67.925781 185.710938 C 68.183594 187.535156 68.46875 189.359375 68.761719 191.179688 C 68.878906 191.898438 69.121094 192.246094 70.0625 192.125 C 73.71875 191.652344 77.398438 191.34375 81.066406 190.949219 C 82.394531 190.808594 82.457031 190.714844 82.5 189.433594 C 82.515625 189.015625 82.539062 188.589844 82.472656 188.179688 C 82.042969 185.585938 82.121094 182.949219 81.960938 180.339844 C 81.660156 175.457031 80.9375 170.632812 80.3125 165.796875 C 79.691406 161.019531 78.972656 156.253906 78.257812 151.492188 C 77.789062 148.375 77.449219 145.230469 76.554688 142.191406 C 76.152344 140.828125 76.148438 140.757812 74.71875 140.863281 C 71.691406 141.082031 68.664062 141.332031 65.648438 141.664062 C 63.878906 141.859375 63.890625 141.9375 63.917969 143.792969 C 63.921875 144.210938 63.917969 144.625 63.917969 145.042969 C 63.953125 145.042969 63.988281 145.042969 64.019531 145.042969 Z M 64.019531 145.042969 " fill-opacity="1" fill-rule="nonzero"/></svg>